<svg width="36" height="35" viewBox="0 0 36 35" fill="none" xmlns="http://www.w3.org/2000/svg">
<path d="M18.5402 1.00799L34.0579 16.1279L35.09 17.1359L34.0579 18.1439L18.5402 33.2998L17.5081 34.3078L16.5129 33.2998L0.9952 18.1439L0 17.1359L0.9952 16.1279L16.5498 1.00799L17.545 0L18.5402 1.00799Z" fill="#FEF35B"/>
<path d="M34.0579 16.1279L18.5402 1.00799L17.545 0L16.5498 1.00799L0.9952 16.1279L0 17.1359L0.9952 18.1439L16.5129 33.2998L17.5081 34.3078L18.5402 33.2998L34.0579 18.1439L35.09 17.1359L34.0579 16.1279ZM17.545 30.2758L4.05452 17.1359L17.545 3.95998L30.9986 17.1359L17.545 30.2758Z" fill="#1A1A1A"/>
<path d="M19.1298 13.9316H15.8125V24.1556H19.1298V13.9316Z" fill="#1A1A1A"/>
<path d="M15.7764 11.485C15.7764 11.953 15.9607 12.313 16.2924 12.673C16.6241 12.997 17.0296 13.1769 17.5088 13.1769C17.9879 13.1769 18.3934 12.997 18.7251 12.673C19.0568 12.349 19.2411 11.953 19.2411 11.485C19.2411 11.017 19.0568 10.621 18.7251 10.297C18.3934 9.97297 17.9879 9.79297 17.5088 9.79297C17.0296 9.79297 16.5873 9.97297 16.2555 10.297C15.9607 10.621 15.7764 11.017 15.7764 11.485Z" fill="#1A1A1A"/>
</svg>
