<svg width="40" height="40" viewBox="0 0 40 40" fill="none" xmlns="http://www.w3.org/2000/svg">
<circle cx="20" cy="20" r="19" stroke="#191919" stroke-width="2"/>
<path d="M13.1587 24.4479C14.5782 24.5805 15.8653 24.2207 17.0387 23.3496C16.452 23.3117 15.941 23.1413 15.5056 22.8004C15.0703 22.4596 14.7486 22.0429 14.5782 21.4938C14.9757 21.5506 15.3353 21.5506 15.7138 21.4559C15.1082 21.3044 14.6161 20.9825 14.2375 20.509C13.859 20.0167 13.6697 19.4675 13.6508 18.8237C14.0104 18.9941 14.3889 19.1266 14.8053 19.1456C13.6319 18.1609 13.3858 16.9868 14.0293 15.5854C15.4867 17.2898 17.2848 18.2366 19.4993 18.3881C19.4993 18.123 19.4614 17.8579 19.4803 17.5928C19.5371 16.7217 19.9535 16.021 20.6917 15.5476C21.7705 14.8658 23.0575 14.9984 23.985 15.8884C24.0418 15.9452 24.0985 15.9642 24.1742 15.9452C24.7231 15.8127 25.2342 15.6233 25.7452 15.3203C25.537 15.9452 25.1585 16.3997 24.6474 16.7595C25.1395 16.7027 25.6127 16.5702 26.0859 16.3997C25.9912 16.5323 25.8966 16.6648 25.802 16.7785C25.537 17.1193 25.2152 17.4034 24.8745 17.6685C24.8367 17.7064 24.7988 17.7821 24.7988 17.8389C24.8178 20.1303 24.0039 22.0808 22.3572 23.6715C21.3352 24.6562 20.086 25.2622 18.6854 25.5084C17.8337 25.6599 16.982 25.6788 16.1113 25.5652C15.0703 25.4137 14.0861 25.0539 13.1965 24.4858C13.1776 24.4858 13.1776 24.4858 13.1587 24.4479Z" fill="#191919"/>
</svg>
